<svg xmlns="http://www.w3.org/2000/svg" viewBox="0 0 600 600"><defs><style>.cls-1{fill:#002b49;}</style></defs><g id="brain-blogo" data-name="brain-blogo"><path class="cls-1" d="M480.21,360.36a113.93,113.93,0,0,0-57.66-60.69A137.48,137.48,0,0,0,378.2,287v-1.36q39.65-11.58,64.16-38.2t24.5-67.5q0-32.73-13.69-55.9a115.12,115.12,0,0,0-35.68-37.84,150.19,150.19,0,0,0-50.1-21.16,254,254,0,0,0-57-6.47H239.76v73.64h37.52q51.89,0,75.32,15.35T376,194.3q0,27.28-22.69,44T285.22,255H202.31V58.61h-90.8V541.39H295.3a370.39,370.39,0,0,0,71-6.81q35-6.81,62-22.85a128.07,128.07,0,0,0,43.61-42.28q16.56-26.25,16.57-65.81A113,113,0,0,0,480.21,360.36Zm-93.37,74.31a70.89,70.89,0,0,1-27.39,21.49,116.78,116.78,0,0,1-36.38,9.53,364.91,364.91,0,0,1-37.15,2.06H202.31V328.63h87.23q56.25,0,82.17,14.68t26,53.52Q397.66,420.71,386.84,434.67Z"/></g></svg>