<svg id="b0eccbd5-bc1a-418b-bbdf-c8fbacd80dd6" data-name="레이어 2" xmlns="http://www.w3.org/2000/svg" viewBox="0 0 500 250"><defs><style>.a80bce0d-ad33-4c3e-864f-f8a6703312c5{fill:#fff;}</style></defs><path class="a80bce0d-ad33-4c3e-864f-f8a6703312c5" d="M63.16,74.76h0L48.41,40.83H37.57v48h8V53.3h0L61,88.78h4.28L80.67,53.27h0v35.5h8V40.83H77.86Z"/><rect class="a80bce0d-ad33-4c3e-864f-f8a6703312c5" x="98.3" y="40.83" width="7.99" height="47.94"/><path class="a80bce0d-ad33-4c3e-864f-f8a6703312c5" d="M151,76.32h0L126.54,40.83H115.88v48h8V53.29h0l24.45,35.51H159V40.83h-8Z"/><path class="a80bce0d-ad33-4c3e-864f-f8a6703312c5" d="M189,40.83H168.61v48H189a24,24,0,1,0,0-47.95Zm0,39.79H176.65V49H189a15.82,15.82,0,1,1,0,31.63Z"/><path class="a80bce0d-ad33-4c3e-864f-f8a6703312c5" d="M241,75.89h0a8.28,8.28,0,0,0-3.57-3.36,16.69,16.69,0,0,0-3.17-1.16c-1.19-.31-2.42-.6-3.63-.85-.73-.15-1.47-.34-2.19-.55a4.68,4.68,0,0,1-2.11-1.32,2.05,2.05,0,0,1-.34-2.3,1.85,1.85,0,0,1,.63-.73,4.93,4.93,0,0,1,1.88-.77,8,8,0,0,1,2-.11,7,7,0,0,1,5.37,3.2l5.64-4.16a11.64,11.64,0,0,0-5.41-4.51,15.62,15.62,0,0,0-13.08.55,8.9,8.9,0,0,0-4.87,8A8.13,8.13,0,0,0,222.64,75a21.29,21.29,0,0,0,5.82,1.87,20.55,20.55,0,0,1,3.62,1,5.25,5.25,0,0,1,1.77,1.07,1.87,1.87,0,0,1,.3.33,2.08,2.08,0,0,1-.49,2.9,6.84,6.84,0,0,1-2.82,1.14,10,10,0,0,1-4.78-.42A8,8,0,0,1,222,79.72L216.56,84A12.34,12.34,0,0,0,224,89.42a20.54,20.54,0,0,0,12.26-.67,9,9,0,0,0,5.29-11.59A9.1,9.1,0,0,0,241,75.89Z"/><polygon class="a80bce0d-ad33-4c3e-864f-f8a6703312c5" points="266.1 83.02 266.1 40.83 261.31 40.83 261.31 88.78 285.28 88.78 285.28 83.02 266.1 83.02"/><path class="a80bce0d-ad33-4c3e-864f-f8a6703312c5" d="M314.06,62.28h0a14.91,14.91,0,0,0-10.4-4.2h-.42a14.93,14.93,0,0,0-10.58,4.79,15.47,15.47,0,0,0,.59,21.68,15,15,0,0,0,20.81,0h0v4.19h4.78V58.09h-4.78ZM303.61,83a9.58,9.58,0,1,1,9.46-9.58A9.52,9.52,0,0,1,303.61,83Z"/><path class="a80bce0d-ad33-4c3e-864f-f8a6703312c5" d="M352.47,62.31a15,15,0,0,0-20.81,0h-.05V40.83h-4.78v48h4.78V84.59h.05a15,15,0,0,0,21.39-.6A15.48,15.48,0,0,0,352.47,62.31ZM342.06,83a9.58,9.58,0,1,1,9.46-9.58A9.53,9.53,0,0,1,342.06,83Z"/><path class="a80bce0d-ad33-4c3e-864f-f8a6703312c5" d="M259.17,106.13H274l41.55,103H295.94l-9-23.58H245.14l-8.72,23.58H217.21ZM281,169.87,266.12,128,251,169.87Z"/><path class="a80bce0d-ad33-4c3e-864f-f8a6703312c5" d="M323.55,106.13h19.38v103H323.55Z"/><path class="a80bce0d-ad33-4c3e-864f-f8a6703312c5" d="M116.26,170.53a24.71,24.71,0,0,0-4.85-7.57,25.08,25.08,0,0,0-7.46-5.38,29.34,29.34,0,0,0-9.46-2.7v-.29a29.23,29.23,0,0,0,13.69-8.15q5.22-5.67,5.23-14.4a23.19,23.19,0,0,0-2.92-11.94,24.63,24.63,0,0,0-7.62-8.07,32.07,32.07,0,0,0-10.69-4.52A54.64,54.64,0,0,0,80,106.13H64.94v15.72h8q11.07,0,16.07,3.27t5,10a11.12,11.12,0,0,1-4.84,9.39q-4.84,3.57-14.54,3.56H57V106.13H37.57v103H76.79A79,79,0,0,0,92,207.71a40.93,40.93,0,0,0,13.23-4.87,27.28,27.28,0,0,0,9.31-9c2.35-3.73,3.54-8.41,3.54-14A24.17,24.17,0,0,0,116.26,170.53ZM96.33,186.39A15.18,15.18,0,0,1,90.49,191a25.11,25.11,0,0,1-7.77,2,77.94,77.94,0,0,1-7.93.44H57V163.76H75.56q12,0,17.54,3.13t5.54,11.43A12.84,12.84,0,0,1,96.33,186.39Z"/><path class="a80bce0d-ad33-4c3e-864f-f8a6703312c5" d="M179.77,163.62q12.15-1.6,18.7-9.1T205,135.67q0-8.73-3.39-14.4a25.4,25.4,0,0,0-9.07-9,40.44,40.44,0,0,0-13-4.73,82.32,82.32,0,0,0-15.15-1.38H153.92v15.72h8.78a69.28,69.28,0,0,1,7.61.44,25.42,25.42,0,0,1,7.15,1.81,12.32,12.32,0,0,1,5.23,4.15,12.18,12.18,0,0,1,2,7.28q0,5.1-2.15,7.93a12.9,12.9,0,0,1-5.61,4.22,26.4,26.4,0,0,1-7.62,1.75q-4.16.36-8.31.36H145.92V106.13H126.54v103h19.38V165.51h14.16l25.23,43.66h23.38Z"/><polygon class="a80bce0d-ad33-4c3e-864f-f8a6703312c5" points="374.11 142.56 374.11 106.13 354.76 106.13 354.76 209.17 374.14 209.17 374.14 142.56 374.11 142.56"/><polygon class="a80bce0d-ad33-4c3e-864f-f8a6703312c5" points="447.42 142.56 447.39 142.56 447.39 106.13 428.04 106.13 428.04 175.17 382.1 108.52 382.1 141.37 428.04 208.79 428.04 209.17 428.3 209.17 428.3 209.17 433.39 209.17 433.39 209.17 447.42 209.17 447.42 142.56"/></svg>