<svg id="b2756d0e-f6f7-4896-bc53-410e05f614e0" data-name="brain-fulllogo" xmlns="http://www.w3.org/2000/svg" viewBox="0 0 500 250"><defs><style>.bf3e3d18-9f6e-47f3-b24a-67b7a36c9a04{fill:#002b49;}</style></defs><path class="bf3e3d18-9f6e-47f3-b24a-67b7a36c9a04" d="M66,74.76h0L51.26,40.83H40.42v48h8V53.3h.05L63.85,88.78h4.28L83.52,53.27h0v35.5h8V40.83H80.72Z"/><rect class="bf3e3d18-9f6e-47f3-b24a-67b7a36c9a04" x="101.15" y="40.83" width="7.99" height="47.94"/><path class="bf3e3d18-9f6e-47f3-b24a-67b7a36c9a04" d="M153.89,76.32h0L129.39,40.83H118.73v48h8V53.29h0l24.46,35.51h10.66V40.83h-8Z"/><path class="bf3e3d18-9f6e-47f3-b24a-67b7a36c9a04" d="M191.89,40.83H171.47v48h20.42a24,24,0,1,0,0-47.95Zm0,39.79H179.5V49h12.39a15.82,15.82,0,1,1,0,31.63Z"/><path class="bf3e3d18-9f6e-47f3-b24a-67b7a36c9a04" d="M243.81,75.89h0a8.28,8.28,0,0,0-3.57-3.36,16.69,16.69,0,0,0-3.17-1.16c-1.19-.31-2.41-.6-3.63-.85-.73-.15-1.47-.34-2.19-.55a4.68,4.68,0,0,1-2.11-1.32,2.05,2.05,0,0,1-.34-2.3,1.85,1.85,0,0,1,.63-.73,4.93,4.93,0,0,1,1.88-.77,8,8,0,0,1,2-.11,7,7,0,0,1,5.37,3.2l5.64-4.16a11.67,11.67,0,0,0-5.4-4.51,15.64,15.64,0,0,0-13.09.55,8.9,8.9,0,0,0-4.87,8A8.13,8.13,0,0,0,225.49,75a21.29,21.29,0,0,0,5.82,1.87,20.32,20.32,0,0,1,3.62,1,5.39,5.39,0,0,1,1.78,1.07,2.35,2.35,0,0,1,.3.33,2.08,2.08,0,0,1-.5,2.9,6.85,6.85,0,0,1-2.81,1.14,10.12,10.12,0,0,1-1.55.12,9.92,9.92,0,0,1-3.24-.54,8,8,0,0,1-4-3.16L219.41,84a12.37,12.37,0,0,0,7.44,5.38,20.57,20.57,0,0,0,12.27-.67,9,9,0,0,0,5.28-11.59A9.1,9.1,0,0,0,243.81,75.89Z"/><polygon class="bf3e3d18-9f6e-47f3-b24a-67b7a36c9a04" points="268.95 83.02 268.95 40.83 264.16 40.83 264.16 88.78 288.13 88.78 288.13 83.02 268.95 83.02"/><path class="bf3e3d18-9f6e-47f3-b24a-67b7a36c9a04" d="M316.91,62.28h0a14.91,14.91,0,0,0-10.4-4.2h-.42a14.93,14.93,0,0,0-10.58,4.79,15.47,15.47,0,0,0,.59,21.68,15,15,0,0,0,20.81,0h0v4.19h4.78V58.09h-4.78ZM306.46,83a9.58,9.58,0,1,1,9.46-9.58A9.52,9.52,0,0,1,306.46,83Z"/><path class="bf3e3d18-9f6e-47f3-b24a-67b7a36c9a04" d="M355.32,62.31a15,15,0,0,0-20.81,0h-.05V40.83h-4.78v48h4.78V84.59h.05a15,15,0,0,0,21.4-.6A15.48,15.48,0,0,0,355.32,62.31ZM344.91,83a9.58,9.58,0,1,1,9.46-9.58A9.53,9.53,0,0,1,344.91,83Z"/><path class="bf3e3d18-9f6e-47f3-b24a-67b7a36c9a04" d="M262,106.13h14.84l41.55,103H298.79l-9-23.58H248l-8.72,23.58H220.06Zm21.79,63.74L269,128l-15.12,41.91Z"/><path class="bf3e3d18-9f6e-47f3-b24a-67b7a36c9a04" d="M326.4,106.13h19.39v103H326.4Z"/><path class="bf3e3d18-9f6e-47f3-b24a-67b7a36c9a04" d="M119.11,170.53a24.32,24.32,0,0,0-12.31-12.95,29.27,29.27,0,0,0-9.46-2.7v-.29A29.23,29.23,0,0,0,111,146.44q5.22-5.67,5.23-14.4a23.19,23.19,0,0,0-2.92-11.94,24.63,24.63,0,0,0-7.62-8.07A32.07,32.07,0,0,0,95,107.51a54.62,54.62,0,0,0-12.15-1.38H67.79v15.72h8q11.07,0,16.08,3.27t5,10A11.12,11.12,0,0,1,92,144.48q-4.84,3.57-14.54,3.56H59.8V106.13H40.42v103H79.65a79,79,0,0,0,15.15-1.46A40.84,40.84,0,0,0,108,202.84a27.28,27.28,0,0,0,9.31-9q3.54-5.59,3.54-14A24.17,24.17,0,0,0,119.11,170.53ZM99.18,186.39A15.11,15.11,0,0,1,93.34,191a25.11,25.11,0,0,1-7.77,2,77.79,77.79,0,0,1-7.93.44H59.8V163.76H78.42q12,0,17.53,3.13t5.54,11.43C101.49,181.71,100.73,184.41,99.18,186.39Z"/><path class="bf3e3d18-9f6e-47f3-b24a-67b7a36c9a04" d="M182.62,163.62q12.16-1.6,18.7-9.1t6.53-18.85c0-5.82-1.12-10.62-3.39-14.4a25.32,25.32,0,0,0-9.07-9,40.44,40.44,0,0,0-13-4.73,82.32,82.32,0,0,0-15.15-1.38H156.77v15.72h8.78a69,69,0,0,1,7.61.44,25.42,25.42,0,0,1,7.15,1.81,12.32,12.32,0,0,1,5.23,4.15,12.18,12.18,0,0,1,2,7.28c0,3.4-.71,6-2.15,7.93a12.9,12.9,0,0,1-5.61,4.22,26.4,26.4,0,0,1-7.62,1.75q-4.16.36-8.31.36H148.78V106.13H129.4v103h19.38V165.51h14.15l25.23,43.66h23.39Z"/><polygon class="bf3e3d18-9f6e-47f3-b24a-67b7a36c9a04" points="376.96 142.56 376.96 106.13 357.62 106.13 357.62 209.17 377 209.17 377 142.56 376.96 142.56"/><polygon class="bf3e3d18-9f6e-47f3-b24a-67b7a36c9a04" points="450.27 142.56 450.24 142.56 450.24 106.13 430.89 106.13 430.89 175.17 384.95 108.52 384.95 141.37 430.89 208.79 430.89 209.17 431.15 209.17 431.15 209.17 436.24 209.17 436.24 209.17 450.27 209.17 450.27 142.56"/></svg>