<?xml version="1.0" standalone="no"?>
<!DOCTYPE svg PUBLIC "-//W3C//DTD SVG 20010904//EN"
 "http://www.w3.org/TR/2001/REC-SVG-20010904/DTD/svg10.dtd">
<svg version="1.0" xmlns="http://www.w3.org/2000/svg"
 width="500.000000pt" height="500.000000pt" viewBox="0 0 500.000000 500.000000"
 preserveAspectRatio="xMidYMid meet">
<metadata>
Created by potrace 1.14, written by Peter Selinger 2001-2017
</metadata>
<g transform="translate(0.000000,500.000000) scale(0.100000,-0.100000)"
fill="#000000" stroke="none">
<path d="M0 2500 l0 -2500 2500 0 2500 0 0 2500 0 2500 -2500 0 -2500 0 0
-2500z m555 -617 c39 -89 73 -163 76 -163 3 0 37 73 76 163 l70 162 54 0 54 0
3 -237 2 -238 -40 0 -40 0 0 166 c0 91 -4 163 -8 160 -4 -3 -39 -77 -78 -166
-64 -150 -71 -161 -94 -158 -21 3 -33 23 -95 165 l-70 163 -3 -165 -2 -165
-40 0 -40 0 0 241 0 240 53 -3 52 -3 70 -162z m505 -73 l0 -240 -40 0 -40 0 0
233 c0 129 3 237 7 240 3 4 21 7 40 7 l33 0 0 -240z m325 64 l120 -175 3 175
2 176 40 0 40 0 0 -240 0 -240 -55 0 -54 0 -118 171 -118 172 -3 -172 -2 -171
-40 0 -40 0 0 240 0 240 53 0 52 0 120 -176z m625 140 c77 -43 113 -103 118
-195 5 -83 -19 -141 -79 -192 -54 -47 -97 -57 -238 -57 l-121 0 0 241 0 241
133 -4 c126 -3 135 -5 187 -34z m652 -176 l3 -213 93 -3 c90 -3 92 -3 92 -27
l0 -25 -120 0 -120 0 0 233 c0 129 3 237 7 240 3 4 14 7 24 7 17 0 19 -15 21
-212z m656 104 l3 -102 31 16 c45 24 130 15 164 -17 106 -99 46 -269 -94 -269
-24 0 -56 7 -72 15 -27 14 -30 14 -30 0 0 -9 -9 -15 -25 -15 l-25 0 0 241 0
240 23 -3 c21 -3 22 -8 25 -106z m-934 -93 c32 -25 33 -34 2 -54 -23 -15 -27
-15 -50 0 -32 21 -79 13 -74 -12 2 -11 27 -25 66 -39 35 -12 69 -30 77 -40 22
-29 18 -79 -7 -109 -44 -50 -164 -54 -211 -6 l-21 21 24 25 c21 22 25 23 40
10 24 -21 77 -30 95 -15 28 23 16 39 -42 56 -92 25 -128 84 -87 142 21 31 48
41 110 41 37 1 58 -5 78 -20z m726 6 c27 -14 30 -14 30 0 0 9 9 15 25 15 l25
0 0 -150 0 -150 -25 0 c-16 0 -25 6 -25 15 0 19 -9 19 -34 0 -26 -20 -100 -19
-142 1 -99 47 -103 202 -8 265 36 23 113 25 154 4z m-2540 -676 l0 -212 124 5
c93 4 134 11 169 26 56 25 82 67 74 124 -10 76 -60 105 -197 115 l-90 6 0 73
0 74 118 0 c177 0 267 -34 329 -122 24 -36 28 -53 31 -122 3 -76 1 -84 -27
-128 -21 -32 -48 -57 -87 -79 l-57 -32 41 -12 c142 -42 214 -181 170 -327 -15
-50 -79 -123 -132 -150 -85 -44 -130 -50 -398 -55 l-258 -5 0 516 0 516 95 0
95 0 0 -211z m890 -5 l0 -216 143 4 c121 2 147 6 177 23 96 56 86 187 -18 232
-18 7 -75 16 -127 20 l-95 6 0 74 0 73 105 0 c127 0 192 -13 267 -52 66 -35
105 -80 124 -146 48 -157 -29 -315 -174 -359 l-61 -19 140 -219 c76 -120 139
-222 139 -227 0 -4 -51 -8 -113 -8 l-113 0 -126 218 -125 217 -72 3 -71 3 0
-221 0 -220 -95 0 -95 0 0 515 0 515 95 0 95 0 0 -216z m1487 -289 c111 -275
202 -506 203 -513 0 -10 -23 -12 -96 -10 l-96 3 -18 45 c-9 25 -29 78 -44 118
l-28 72 -208 0 -208 0 -42 -116 c-24 -64 -48 -118 -55 -120 -6 -3 -50 -4 -97
-2 l-86 3 199 490 c109 270 203 500 209 513 9 21 15 23 87 20 l77 -3 203 -500z
m483 -10 l0 -515 -95 0 -95 0 0 515 0 515 95 0 95 0 0 -515z m310 0 l0 -515
-95 0 -95 0 0 515 0 515 95 0 95 0 0 -515z m730 0 l0 -515 -93 0 -93 0 -232
341 -232 340 0 166 0 166 228 -330 227 -330 3 338 2 339 95 0 95 0 0 -515z"/>
<path d="M1770 1809 l0 -161 89 4 c96 3 123 15 164 70 27 36 33 107 13 146
-37 72 -100 102 -210 102 l-56 0 0 -161z"/>
<path d="M3383 1805 c-91 -39 -62 -175 37 -175 54 0 90 34 90 85 0 49 -15 74
-55 91 -40 16 -32 17 -72 -1z"/>
<path d="M3005 1811 c-64 -27 -82 -114 -32 -157 42 -36 98 -33 131 7 34 40 34
80 -1 118 -31 33 -67 45 -98 32z"/>
<path d="M570 670 l0 -152 143 4 c160 5 213 20 249 70 25 36 29 98 9 145 -9
22 -27 39 -59 55 -40 19 -67 23 -194 26 l-148 4 0 -152z"/>
<path d="M2584 962 l-70 -197 73 -3 c40 -2 106 -2 146 0 l73 3 -70 198 c-39
108 -73 197 -76 197 -3 0 -37 -89 -76 -198z"/>
</g>
</svg>
